<svg aria-hidden="true" style="position: absolute; width: 0; height: 0; overflow: hidden;" version="1.1" xmlns="http://www.w3.org/2000/svg" xmlns:xlink="http://www.w3.org/1999/xlink">
<defs>
<symbol id="chevron-thin-left" viewBox="0 0 20 20">
<path d="M13.891 17.418c0.268 0.272 0.268 0.709 0 0.979s-0.701 0.271-0.969 0l-7.83-7.908c-0.268-0.27-0.268-0.707 0-0.979l7.83-7.908c0.268-0.27 0.701-0.27 0.969 0s0.268 0.709 0 0.979l-7.141 7.419 7.141 7.418z"></path>
</symbol>
<symbol id="chevron-thin-right" viewBox="0 0 20 20">
<path d="M13.25 10l-7.141-7.42c-0.268-0.27-0.268-0.707 0-0.979 0.268-0.27 0.701-0.27 0.969 0l7.83 7.908c0.268 0.271 0.268 0.709 0 0.979l-7.83 7.908c-0.268 0.271-0.701 0.27-0.969 0s-0.268-0.707 0-0.979l7.141-7.417z"></path>
</symbol>
<symbol id="icon-close" viewBox="0 0 31 32">
<path fill="#242d52" style="fill: var(--color1, #242d52)" d="M26.073 1.087l4.113 4.113-10.8 10.8 10.8 10.8-4.113 4.113-10.8-10.8-10.8 10.8-4.113-4.113 10.799-10.8-10.799-10.8 4.113-4.113 10.8 10.799 10.8-10.799z"></path>
</symbol>
<symbol id="icon-facebook" viewBox="0 0 32 32">
<path fill="#fff" style="fill: var(--color2, #fff)" d="M30.234 0h-28.467c-0.976 0-1.766 0.79-1.766 1.766v28.469c0 0.974 0.79 1.765 1.766 1.765h15.328v-12.392h-4.173v-4.829h4.17v-3.563c0-4.133 2.525-6.384 6.213-6.384 1.766 0 3.283 0.131 3.726 0.19v4.32h-2.557c-2.006 0-2.394 0.955-2.394 2.352v3.085h4.782l-0.624 4.829h-4.16v12.392h8.157c0.973 0 1.763-0.79 1.763-1.766v-28.467c0.002-0.976-0.789-1.766-1.765-1.766z"></path>
</symbol>
<symbol id="icon-hamburger" viewBox="0 0 44 32">
<path fill="#242d52" style="fill: var(--color1, #242d52)" d="M0 0h44.444v7.111h-44.444zM0 12.444h44.444v7.111h-44.444zM0 24.889h44.444v7.111h-44.444z"></path>
</symbol>
<symbol id="icon-instagram" viewBox="0 0 34 32">
<path fill="#fff" style="fill: var(--color2, #fff)" d="M16.533 2.883c4.272 0 4.779 0.016 6.467 0.094 4.336 0.197 6.362 2.254 6.56 6.558 0.077 1.686 0.091 2.192 0.091 6.464 0 4.275-0.016 4.781-0.093 6.467-0.198 4.299-2.218 6.36-6.558 6.558-1.688 0.077-2.192 0.093-6.467 0.093-4.272 0-4.778-0.016-6.464-0.093-4.347-0.198-6.362-2.266-6.56-6.56-0.077-1.686-0.093-2.192-0.093-6.466 0-4.272 0.016-4.778 0.093-6.464 0.198-4.304 2.219-6.363 6.56-6.56 1.686-0.077 2.192-0.093 6.464-0.093zM16.533 0c-4.344 0-4.888 0.019-6.595 0.096-5.811 0.267-9.042 3.491-9.307 9.307-0.078 1.707-0.096 2.251-0.096 6.597s0.018 4.891 0.096 6.597c0.266 5.811 3.49 9.040 9.306 9.307 1.709 0.077 2.253 0.096 6.597 0.096 4.346 0 4.891-0.019 6.598-0.096 5.805-0.267 9.042-3.491 9.306-9.307 0.078-1.706 0.096-2.251 0.096-6.597s-0.018-4.89-0.096-6.595c-0.261-5.806-3.488-9.040-9.304-9.309-1.709-0.080-2.254-0.096-6.6-0.096zM16.533 7.784c-4.538 0-8.216 3.678-8.216 8.216s3.678 8.216 8.216 8.216v0c4.538 0 8.216-3.678 8.216-8.216s-3.678-8.216-8.216-8.216v0zM16.533 21.333c-2.945 0-5.333-2.388-5.333-5.333s2.388-5.333 5.333-5.333v0c2.945 0 5.333 2.388 5.333 5.333s-2.388 5.333-5.333 5.333v0zM25.075 5.541c-0 0-0.001 0-0.001 0-1.060 0-1.92 0.86-1.92 1.92s0.859 1.92 1.919 1.92h0c1.060 0 1.92-0.86 1.92-1.92s-0.86-1.92-1.92-1.92v0z"></path>
</symbol>
<symbol id="icon-pinterest" viewBox="0 0 32 32">
<path fill="#fff" style="fill: var(--color2, #fff)" d="M16 0c-8.835 0-16 7.163-16 16 0 6.779 4.218 12.568 10.17 14.899-0.141-1.266-0.267-3.208 0.056-4.589 0.291-1.248 1.875-7.952 1.875-7.952s-0.478-0.96-0.478-2.378c0-2.224 1.29-3.885 2.896-3.885 1.363 0 2.022 1.024 2.022 2.253 0 1.373-0.872 3.424-1.325 5.328-0.378 1.592 0.8 2.891 2.368 2.891 2.845 0 5.030-2.998 5.030-7.328 0-3.829-2.752-6.509-6.683-6.509-4.552 0-7.224 3.416-7.224 6.944 0 1.374 0.53 2.85 1.192 3.65 0.080 0.086 0.129 0.201 0.129 0.328 0 0.047-0.007 0.093-0.020 0.137l0.001-0.003-0.445 1.813c-0.070 0.293-0.232 0.357-0.536 0.214-1.998-0.93-3.248-3.851-3.248-6.198 0-5.046 3.667-9.683 10.573-9.683 5.55 0 9.864 3.957 9.864 9.242 0 5.515-3.477 9.952-8.304 9.952-1.621 0-3.144-0.84-3.666-1.837l-0.997 3.805c-0.362 1.39-1.336 3.133-1.99 4.194 1.499 0.464 3.090 0.714 4.739 0.714 8.835 0 16-7.163 16-16s-7.165-16-16-16z"></path>
</symbol>
<symbol id="icon-twitter" viewBox="0 0 37 32">
<path fill="#fff" style="fill: var(--color2, #fff)" d="M36.741 4.972c-1.22 0.556-2.636 0.96-4.12 1.141l-0.070 0.007c1.509-0.913 2.643-2.316 3.192-3.984l0.015-0.052c-1.334 0.805-2.886 1.42-4.539 1.755l-0.094 0.016c-1.332-1.42-3.22-2.304-5.315-2.304-0.003 0-0.007 0-0.010 0h0.001c-4.709 0-8.169 4.395-7.106 8.956-6.077-0.313-11.422-3.201-15.005-7.584l-0.029-0.037c-0.62 1.051-0.987 2.316-0.987 3.666 0 2.521 1.277 4.743 3.219 6.056l0.026 0.016c-1.219-0.038-2.352-0.371-3.341-0.929l0.036 0.019c-0.080 3.38 2.341 6.542 5.849 7.244-0.575 0.162-1.234 0.256-1.916 0.256-0.487 0-0.964-0.048-1.425-0.139l0.046 0.008c0.959 2.922 3.636 5.006 6.809 5.067l0.007 0c-2.467 1.949-5.622 3.127-9.052 3.127-0.616 0-1.223-0.038-1.819-0.112l0.071 0.007c3.155 2.055 7.016 3.276 11.162 3.276 0.007 0 0.014 0 0.021 0h-0.001c13.543 0 21.195-11.438 20.732-21.698 1.433-1.044 2.641-2.296 3.607-3.724l0.033-0.052z"></path>
</symbol>
<symbol id="icon-youtube" viewBox="0 0 34 32">
<path fill="#fff" style="fill: var(--color2, #fff)" d="M16.533 0c-8.835 0-16 7.165-16 16 0 8.837 7.165 16 16 16 8.837 0 16-7.163 16-16 0-8.835-7.163-16-16-16zM22.454 22.523c-2.803 0.192-9.045 0.192-11.843 0-3.035-0.208-3.389-1.694-3.411-6.523 0.022-4.838 0.379-6.315 3.411-6.523 2.798-0.192 9.042-0.192 11.843 0 3.037 0.208 3.389 1.694 3.413 6.523-0.024 4.838-0.381 6.315-3.413 6.523zM13.867 12.877l6.555 3.118-6.555 3.128v-6.246z"></path>
</symbol>
<symbol id="logo" viewBox="0 0 195 32">
<path fill="#242d52" style="fill: var(--color1, #242d52)" d="M53.352 22.412v-11.008c0-2.103 0.488-3.76 1.464-4.973 0.977-1.213 2.2-1.82 3.667-1.82 2.877 0 4.316 2.103 4.316 6.308v11.493h5.043v-12.773c0-3.22-0.667-5.627-2.004-7.223-1.336-1.596-3.244-2.393-5.725-2.393-1.629 0-3.12 0.312-4.469 0.937-1.372 0.641-2.517 1.565-3.398 2.703l-0.016 0.021h-0.088c-1.307-2.441-3.493-3.661-6.563-3.661-1.292 0-2.536 0.289-3.732 0.871-1.245 0.62-2.291 1.463-3.124 2.487l-0.013 0.017h-0.067v-3.044h-5.043v22.036h5.043v-10.985c0-2.103 0.496-3.76 1.487-4.973s2.257-1.82 3.799-1.82c2.92 0 4.381 2.103 4.381 6.308v11.493h5.043zM81.487 22.743c2.995 0 5.329-1.103 7.003-3.309h0.067v2.956h4.821v-22.036h-5.043v2.647h-0.088c-1.673-1.985-3.94-2.977-6.804-2.977-0.022-0-0.048-0-0.073-0-2.95 0-5.612 1.235-7.497 3.216l-0.004 0.004c-0.94 1-1.68 2.213-2.224 3.64-0.516 1.334-0.815 2.878-0.815 4.492 0 0.033 0 0.067 0 0.1l-0-0.005c0 1.677 0.271 3.221 0.813 4.633 0.544 1.412 1.285 2.603 2.225 3.573 0.934 0.958 2.059 1.724 3.315 2.238l0.065 0.024c1.229 0.51 2.656 0.806 4.152 0.806 0.031 0 0.062-0 0.093-0l-0.005 0zM82.28 18.155c-1.865 0-3.384-0.621-4.559-1.864-1.173-1.243-1.761-2.843-1.761-4.799 0-2.073 0.605-3.739 1.816-4.996 1.212-1.257 2.72-1.885 4.525-1.885 1.791 0 3.277 0.657 4.46 1.973 1.181 1.317 1.773 2.953 1.773 4.908 0 1.956-0.607 3.556-1.817 4.799-1.212 1.243-2.691 1.864-4.437 1.864zM118.429 22.412v-12.993c0-3.191-0.715-5.555-2.147-7.092-1.429-1.536-3.409-2.304-5.933-2.304-0.016-0-0.035-0-0.053-0-1.457 0-2.839 0.317-4.083 0.885l0.061-0.025c-1.31 0.597-2.413 1.44-3.291 2.48l-0.011 0.014h-0.067v-3.024h-5.043v22.036h5.043v-11.072c0-2.117 0.517-3.764 1.552-4.941 1.036-1.176 2.419-1.764 4.151-1.764 0.793 0 1.472 0.103 2.037 0.308 0.565 0.207 1.061 0.541 1.487 1.004 0.427 0.464 0.741 1.092 0.947 1.887 0.205 0.793 0.308 1.764 0.308 2.911v11.692h5.043zM132.053 22.743c2.995 0 5.328-1.103 7.003-3.309h0.067v2.956h4.821v-22.036h-5.043v2.647h-0.088c-1.673-1.985-3.941-2.977-6.804-2.977-0.022-0-0.048-0-0.075-0-2.95 0-5.612 1.235-7.497 3.216l-0.004 0.004c-0.939 1-1.68 2.213-2.224 3.64-0.515 1.333-0.814 2.876-0.814 4.488 0 0.035 0 0.069 0 0.104l-0-0.005c0 1.677 0.271 3.221 0.813 4.633 0.544 1.412 1.285 2.603 2.224 3.573 0.934 0.958 2.060 1.725 3.316 2.238l0.065 0.024c1.229 0.51 2.656 0.806 4.152 0.806 0.031 0 0.061-0 0.092-0l-0.005 0zM132.845 18.155c-1.864 0-3.384-0.621-4.557-1.864-1.175-1.243-1.763-2.843-1.763-4.799 0-2.073 0.607-3.739 1.817-4.996s2.72-1.885 4.525-1.885c1.791 0 3.277 0.657 4.459 1.973 1.181 1.317 1.773 2.953 1.773 4.908 0 1.956-0.607 3.556-1.817 4.799s-2.691 1.864-4.437 1.864zM158.272 31.655c1.6 0 3.032-0.187 4.293-0.563 1.263-0.375 2.324-0.897 3.183-1.567 0.859-0.675 1.572-1.491 2.114-2.418l0.022-0.040c0.54-0.916 0.962-1.978 1.208-3.106l0.013-0.072c0.251-1.147 0.375-2.404 0.375-3.772v-19.764h-5.043v2.316h-0.088c-0.876-0.839-1.919-1.513-3.073-1.965l-0.064-0.022c-1.086-0.432-2.345-0.683-3.661-0.683-0.010 0-0.020 0-0.029 0h0.001c-2.011 0-3.816 0.477-5.416 1.433s-2.845 2.284-3.733 3.983c-0.888 1.697-1.332 3.607-1.332 5.724 0 2.147 0.467 4.051 1.399 5.713 0.932 1.661 2.213 2.937 3.843 3.827s3.464 1.335 5.505 1.335c2.729 0 4.955-0.897 6.672-2.691h0.088v2.337c0 1.56-0.573 2.853-1.717 3.883-1.147 1.029-2.76 1.544-4.845 1.544-1.424 0-2.675-0.176-3.755-0.529-1.079-0.353-2.323-0.904-3.732-1.653l-1.189 4.455c1.233 0.736 2.621 1.301 4.163 1.699s3.141 0.596 4.8 0.596zM158.448 17.361c-1.82 0-3.321-0.579-4.503-1.733-1.183-1.153-1.773-2.701-1.773-4.643 0-1.867 0.58-3.389 1.74-4.567 1.16-1.176 2.672-1.764 4.536-1.764 1.776 0 3.256 0.58 4.437 1.743 1.181 1.161 1.773 2.669 1.773 4.521 0 1.868-0.577 3.408-1.729 4.621s-2.647 1.82-4.481 1.82zM183.896 22.743c2.056 0 3.865-0.375 5.428-1.125 1.564-0.749 2.844-1.764 3.843-3.044l-3.523-3.021c-1.38 1.735-3.208 2.603-5.484 2.603-1.613 0-2.983-0.449-4.107-1.347-1.123-0.896-1.845-2.124-2.169-3.683h16.032c0.088-0.529 0.132-1.2 0.132-2.008 0-2.132-0.433-4.036-1.3-5.713-0.86-1.664-2.138-3.008-3.698-3.924l-0.045-0.024c-1.629-0.956-3.509-1.433-5.637-1.433-0.024-0-0.053-0-0.082-0-1.504 0-2.937 0.304-4.241 0.854l0.072-0.027c-1.32 0.552-2.459 1.32-3.413 2.305-0.953 0.985-1.703 2.184-2.245 3.595-0.543 1.413-0.815 2.949-0.815 4.611 0 2.251 0.492 4.247 1.475 5.989 0.984 1.743 2.328 3.077 4.031 4.004s3.619 1.389 5.747 1.389zM188.983 9.044h-11.009c0.352-1.412 1.035-2.504 2.047-3.276 1.013-0.772 2.217-1.157 3.612-1.157 1.409 0 2.573 0.397 3.491 1.191 0.917 0.795 1.537 1.875 1.86 3.243z"></path>
<path fill="#f3603c" style="fill: var(--color3, #f3603c)" d="M3.715 13.715c2.051 0 3.713 1.705 3.713 3.809 0 2.103-1.663 3.809-3.713 3.809-2.052 0-3.715-1.707-3.715-3.809 0-2.104 1.663-3.809 3.715-3.809zM3.715 0c2.051 0 3.712 1.707 3.712 3.809 0 2.104-1.663 3.809-3.713 3.809s-3.713-1.705-3.713-3.809c0-2.103 1.663-3.809 3.715-3.809zM17.085 0c2.052 0 3.715 1.707 3.715 3.809 0 2.104-1.663 3.809-3.715 3.809-2.051 0-3.713-1.705-3.713-3.809 0-2.103 1.663-3.809 3.713-3.809z"></path>
<path fill="#f3603c" style="fill: var(--color3, #f3603c)" opacity="0.5" d="M20.8 17.676c0 2.104-1.663 3.809-3.715 3.809s-3.715-1.706-3.715-3.809c0-2.104 1.663-3.809 3.715-3.809s3.715 1.706 3.715 3.809z"></path>
</symbol>
</defs>
</svg>
